<mxfile host="app.diagrams.net" modified="2023-07-03T09:40:09.902Z" agent="Mozilla/5.0 (Macintosh; Intel Mac OS X 10_15_7) AppleWebKit/537.36 (KHTML, like Gecko) Chrome/114.0.0.0 Safari/537.36" etag="lTonXyxPPaCjZOutdAcn" version="21.5.1" type="github">
  <diagram name="第 1 页" id="mZvUaVm5JphhHqyW1R5l">
    <mxGraphModel dx="1060" dy="508" grid="1" gridSize="10" guides="1" tooltips="1" connect="1" arrows="1" fold="1" page="1" pageScale="1" pageWidth="827" pageHeight="1169" math="0" shadow="0">
      <root>
        <mxCell id="0" />
        <mxCell id="1" parent="0" />
        <mxCell id="l__52ShAVAdqD3ST6Q2m-1" value="" style="ellipse;html=1;shape=endState;fillColor=#000000;strokeColor=#ff0000;" vertex="1" parent="1">
          <mxGeometry x="540" y="115" width="40" height="40" as="geometry" />
        </mxCell>
        <mxCell id="l__52ShAVAdqD3ST6Q2m-9" style="edgeStyle=orthogonalEdgeStyle;rounded=0;orthogonalLoop=1;jettySize=auto;html=1;entryX=0;entryY=0.5;entryDx=0;entryDy=0;" edge="1" parent="1" source="l__52ShAVAdqD3ST6Q2m-2" target="l__52ShAVAdqD3ST6Q2m-1">
          <mxGeometry relative="1" as="geometry" />
        </mxCell>
        <mxCell id="l__52ShAVAdqD3ST6Q2m-10" style="edgeStyle=orthogonalEdgeStyle;rounded=0;orthogonalLoop=1;jettySize=auto;html=1;entryX=0.308;entryY=-0.017;entryDx=0;entryDy=0;entryPerimeter=0;" edge="1" parent="1" target="l__52ShAVAdqD3ST6Q2m-3">
          <mxGeometry relative="1" as="geometry">
            <mxPoint x="330" y="165" as="sourcePoint" />
            <mxPoint x="330" y="300" as="targetPoint" />
            <Array as="points">
              <mxPoint x="330" y="309" />
            </Array>
          </mxGeometry>
        </mxCell>
        <mxCell id="l__52ShAVAdqD3ST6Q2m-2" value="&lt;b&gt;&lt;font style=&quot;font-size: 19px;&quot;&gt;scheduling&lt;/font&gt;&lt;/b&gt;" style="rounded=1;whiteSpace=wrap;html=1;" vertex="1" parent="1">
          <mxGeometry x="293.5" y="105" width="120" height="60" as="geometry" />
        </mxCell>
        <mxCell id="l__52ShAVAdqD3ST6Q2m-11" style="edgeStyle=orthogonalEdgeStyle;rounded=0;orthogonalLoop=1;jettySize=auto;html=1;entryX=0.723;entryY=0.999;entryDx=0;entryDy=0;entryPerimeter=0;" edge="1" parent="1" target="l__52ShAVAdqD3ST6Q2m-2">
          <mxGeometry relative="1" as="geometry">
            <mxPoint x="360.5" y="310" as="sourcePoint" />
            <mxPoint x="376" y="165" as="targetPoint" />
            <Array as="points">
              <mxPoint x="380" y="310" />
              <mxPoint x="380" y="165" />
            </Array>
          </mxGeometry>
        </mxCell>
        <mxCell id="l__52ShAVAdqD3ST6Q2m-3" value="&lt;b&gt;&lt;font style=&quot;font-size: 19px;&quot;&gt;stopped&lt;/font&gt;&lt;/b&gt;" style="rounded=1;whiteSpace=wrap;html=1;" vertex="1" parent="1">
          <mxGeometry x="294" y="310" width="120" height="60" as="geometry" />
        </mxCell>
        <mxCell id="l__52ShAVAdqD3ST6Q2m-8" style="edgeStyle=orthogonalEdgeStyle;rounded=0;orthogonalLoop=1;jettySize=auto;html=1;entryX=0;entryY=0.5;entryDx=0;entryDy=0;" edge="1" parent="1" source="l__52ShAVAdqD3ST6Q2m-4" target="l__52ShAVAdqD3ST6Q2m-2">
          <mxGeometry relative="1" as="geometry" />
        </mxCell>
        <mxCell id="l__52ShAVAdqD3ST6Q2m-12" style="edgeStyle=elbowEdgeStyle;rounded=0;orthogonalLoop=1;jettySize=auto;html=1;" edge="1" parent="1">
          <mxGeometry relative="1" as="geometry">
            <mxPoint x="294" y="340" as="targetPoint" />
            <mxPoint x="174" y="149.99999999999994" as="sourcePoint" />
            <Array as="points">
              <mxPoint x="174" y="257.5" />
            </Array>
          </mxGeometry>
        </mxCell>
        <mxCell id="l__52ShAVAdqD3ST6Q2m-4" value="" style="ellipse;whiteSpace=wrap;html=1;aspect=fixed;" vertex="1" parent="1">
          <mxGeometry x="160" y="120" width="30" height="30" as="geometry" />
        </mxCell>
        <mxCell id="l__52ShAVAdqD3ST6Q2m-6" value="deleted" style="text;html=1;align=center;verticalAlign=middle;resizable=0;points=[];autosize=1;strokeColor=none;fillColor=none;fontStyle=1;fontSize=19;" vertex="1" parent="1">
          <mxGeometry x="515" y="155" width="90" height="40" as="geometry" />
        </mxCell>
        <mxCell id="l__52ShAVAdqD3ST6Q2m-7" value="waiting" style="text;html=1;align=center;verticalAlign=middle;resizable=0;points=[];autosize=1;strokeColor=none;fillColor=none;fontSize=19;fontStyle=1" vertex="1" parent="1">
          <mxGeometry x="130" y="150" width="90" height="40" as="geometry" />
        </mxCell>
      </root>
    </mxGraphModel>
  </diagram>
</mxfile>
